<?xml version="1.0" encoding="utf-8"?>
<!-- Generator: Adobe Illustrator 16.0.0, SVG Export Plug-In . SVG Version: 6.00 Build 0)  -->
<!DOCTYPE svg PUBLIC "-//W3C//DTD SVG 1.1//EN" "http://www.w3.org/Graphics/SVG/1.1/DTD/svg11.dtd">
<svg version="1.1" id="Layer_1" xmlns="http://www.w3.org/2000/svg" xmlns:xlink="http://www.w3.org/1999/xlink" x="0px" y="0px"
	 width="34.221px" height="30px" viewBox="359.162 134.957 34.221 30" enable-background="new 359.162 134.957 34.221 30"
	 xml:space="preserve">
<path fill="#FFFFFF" d="M374.392,155.84l-2.435,2.416c0,0-1.546-1.387-1.983-1.911c-0.438-0.524-1.075-0.648-0.949-2.092
	c0.126-1.444,0.411-3.667,0.537-5.1c0.125-1.433-0.104-1.797-0.539-2.316c-0.435-0.52-1.249-1.378-1.249-1.378l2.424-2.396
	c0,0,1.539,1.373,1.974,1.893c0.435,0.519,1.07,0.643,0.944,2.076c-0.125,1.433-0.395,3.639-0.521,5.083
	c-0.126,1.444,0.103,1.812,0.54,2.335C373.573,154.972,374.392,155.84,374.392,155.84z M379.913,155.908l-2.436,2.416
	c0,0-1.546-1.387-1.984-1.911c-0.437-0.523-1.075-0.647-0.948-2.091c0.126-1.445,0.412-3.667,0.537-5.1
	c0.125-1.434-0.103-1.797-0.538-2.317c-0.435-0.519-1.249-1.377-1.249-1.377l2.424-2.397c0,0,1.539,1.373,1.973,1.892
	c0.435,0.52,1.07,0.644,0.945,2.076c-0.125,1.434-0.395,3.639-0.52,5.084c-0.127,1.444,0.103,1.811,0.539,2.334
	C379.094,155.04,379.913,155.908,379.913,155.908z M387.863,158.367c-3.269,0.985-5.718-0.53-7.67-2.854
	c-0.436-0.519,0.033-1.924,0.159-3.357s0.125-1.433,0.25-2.867c0.126-1.433-0.102-1.796-0.538-2.315
	c-0.435-0.52-1.248-1.378-1.248-1.378l2.423-2.396c0,0,1.401,1.373,1.837,1.893c0.436,0.519,1.069,0.643,0.945,2.076
	c-0.126,1.433-0.468,5.341-0.593,6.775c-0.062,0.692,0.856,1.756,2.393,1.789c1.723,0.037,3.467-0.905,4.074-4.812
	c0.583-3.756-0.456-6.585-2.739-8.946c-2.336-2.417-5.54-3.504-8.873-3.796c-8.824-0.772-13.711,4.389-15.005,9.723
	c-1.391,5.739,0.316,9.978,3.981,12.349c3.323,2.149,9.29,1.55,13.172,0.601c0.107-0.026,0.326-0.033,0.326-0.033l0.633,3.137
	c0,0-0.174,0.025-0.26,0.049c-4.87,1.401-12.301,1.583-16.478-1.696c-4.216-3.309-6.197-7.819-4.807-14.623
	c1.375-6.729,8.818-13.464,18.635-12.662c3.326,0.271,8.142,1.758,10.969,4.726c3.145,3.303,4.201,7.813,3.843,11.163
	C392.903,154.542,390.967,157.432,387.863,158.367z"/>
</svg>
