<?xml version="1.0" encoding="utf-8"?>
<!-- Generator: Adobe Illustrator 16.0.0, SVG Export Plug-In . SVG Version: 6.00 Build 0)  -->
<!DOCTYPE svg PUBLIC "-//W3C//DTD SVG 1.1//EN" "http://www.w3.org/Graphics/SVG/1.1/DTD/svg11.dtd">
<svg version="1.1" id="Layer_1" xmlns="http://www.w3.org/2000/svg" xmlns:xlink="http://www.w3.org/1999/xlink" x="0px" y="0px"
	 width="760px" height="491.765px" viewBox="0 0 760 491.765" enable-background="new 0 0 760 491.765" xml:space="preserve">
<path fill-rule="evenodd" clip-rule="evenodd" fill="#FFFFFF" d="M749.678,473.94h-21.849c0.44-14.636,0.663-27.328,0.663-38.066
	h-33.348c0,9.637,0.226,22.323,0.661,38.066h-21.847c0.574-14.594,0.86-29.647,0.86-45.164c0-15.695-0.286-29.423-0.86-41.185
	h21.847c-0.526,12.425-0.79,22.877-0.79,33.443h33.605c0-9.331-0.262-19.783-0.792-33.443h21.849
	c-0.619,11.232-0.926,24.961-0.926,41.185C748.752,445.708,749.059,460.762,749.678,473.94z M627.014,473.94
	c0.616-7.295,1.168-47.487,1.655-58.366h-0.996c-1.547,3.979-38.407,53.678-38.407,58.366h-19.498
	c0.75-11.721,1.125-25.381,1.125-40.986c0-15.873-0.375-30.997-1.125-45.362h21.784c-0.619,11.232-1.235,49.54-1.854,58.294h0.994
	c1.852-4.379,38.535-53.389,38.535-58.294h19.636c-0.661,14.365-0.989,29.489-0.989,45.362c0,15.605,0.328,29.266,0.989,40.986
	H627.014z M524.828,473.94c0.535-12.737,0.797-27.499,0.797-44.302c0-11.675-0.133-19.223-0.396-26.828h-9.345
	c-0.664,3.408-1.511,4.961-2.545,8.854c-1.041,3.894-2.24,7.88-3.608,11.972c-1.369,4.088-2.878,8.168-4.53,12.237
	c-1.653,4.065-3.444,7.988-5.361,11.769c-1.918,3.78-3.95,7.308-6.084,10.58c-2.146,3.272-4.381,6.131-6.719,8.586
	c-2.337,2.455-4.763,4.41-7.276,5.867c-2.516,1.463-8.199,2.256-10.799,2.389l-0.664-16.58c1.681-0.31,3.527-1.588,5.558-3.846
	c2.028-2.254,4.135-5.21,6.316-8.853c2.184-3.651,4.341-7.813,6.486-12.505c2.136-4.686,4.144-9.602,6.021-14.753
	c1.874-5.151,3.548-10.377,5.029-15.682c1.475-5.305,2.61-10.393,3.403-15.255h44.326c-0.524,11.714-0.791,25.133-0.791,40.254
	c0,16.805,0.267,32.165,0.791,46.095H524.828z M362.793,170.082l-17.695,17.556c0,0-11.237-10.084-14.411-13.888
	c-3.175-3.802-7.812-4.704-6.892-15.201c0.917-10.494,2.988-26.649,3.901-37.063c0.91-10.414-0.75-13.057-3.91-16.831
	c-3.164-3.776-9.075-10.014-9.075-10.014l17.614-17.414c0,0,11.18,9.977,14.342,13.752c3.161,3.775,7.776,4.671,6.865,15.086
	c-0.912,10.414-2.869,26.441-3.787,36.938c-0.919,10.493,0.748,13.164,3.92,16.967C356.843,163.776,362.793,170.082,362.793,170.082
	z M402.913,170.579l-17.698,17.555c0,0-11.238-10.083-14.413-13.886c-3.174-3.803-7.81-4.707-6.891-15.2
	c0.918-10.497,2.989-26.649,3.899-37.063c0.913-10.416-0.748-13.059-3.909-16.833c-3.162-3.774-9.073-10.011-9.073-10.011
	l17.614-17.417c0,0,11.179,9.979,14.338,13.752c3.161,3.777,7.779,4.672,6.865,15.086c-0.908,10.416-2.868,26.445-3.78,36.939
	c-0.922,10.493,0.745,13.166,3.918,16.968C396.963,164.27,402.913,170.579,402.913,170.579z M460.692,188.448
	c-23.753,7.156-41.553-3.854-55.739-20.745c-3.169-3.77,0.241-13.978,1.153-24.395c0.91-10.413,0.91-10.413,1.818-20.829
	c0.912-10.414-0.745-13.056-3.909-16.83c-3.162-3.777-9.069-10.015-9.069-10.015l17.61-17.414c0,0,10.18,9.977,13.347,13.752
	c3.161,3.773,7.772,4.671,6.865,15.085c-0.91,10.415-3.399,38.82-4.307,49.235c-0.445,5.034,6.226,12.765,17.387,13.004
	c12.524,0.269,25.204-6.576,29.612-34.972c4.234-27.295-3.321-47.859-19.906-65.014c-16.976-17.567-40.257-25.463-64.481-27.582
	c-64.126-5.611-99.643,31.892-109.041,70.655c-10.109,41.701,2.299,72.51,28.929,89.736c24.147,15.62,67.512,11.263,95.724,4.365
	c0.779-0.189,2.367-0.242,2.367-0.242l4.6,22.794c0,0-1.265,0.182-1.886,0.358c-35.394,10.184-89.389,11.503-119.747-12.32
	c-30.641-24.046-45.034-56.822-34.933-106.263c9.991-48.9,64.085-97.849,135.426-92.02c24.173,1.974,59.172,12.776,79.711,34.346
	c22.85,23.999,30.528,56.778,27.924,81.121C497.317,160.654,483.243,181.65,460.692,188.448z M498.62,287.278H251.913V262.61H498.62
	V287.278z M271.566,422.078c0-9.329-0.265-20.826-0.792-34.486h21.849c-0.618,11.232-0.928,24.961-0.928,41.185
	c0,16.933,0.311,31.986,0.928,45.164h-21.849c0.439-14.636,0.662-27.328,0.662-38.066h-30.217c0,9.637,0.22,22.323,0.662,38.066
	h-21.851c0.573-14.594,0.858-29.647,0.858-45.164c0-15.695-0.286-29.423-0.858-41.185h21.851
	c-0.53,12.425-0.795,23.918-0.795,34.486H271.566z M199.86,459.346l-0.529,14.594h-59.428c0.573-13.358,0.859-28.407,0.859-45.164
	c0-16.095-0.286-29.823-0.859-41.185h56.848l-0.729,14.521c-13.23-0.704-25.229-1.059-35.99-1.059
	c0.441,6.145,0.66,13.398,0.66,21.757c9.22,0,19.077-0.247,29.575-0.732v13.859c-10.321-0.442-20.178-0.666-29.575-0.666
	c0,8.979,0.178,17.38,0.531,25.202C173.309,460.473,186.187,460.101,199.86,459.346z M94.163,407.738H93.17
	c-0.441,2.653-20.989,63.458-20.989,66.202H54.434c0-2.834-16.985-62.768-17.91-68.296h-0.993c-0.045,5.528-5.26,62.549-5.26,68.296
	H9.678c0-1.326,1.598-14.613,4.795-39.856c3.197-25.248,4.795-40.747,4.795-46.492h28.732c0,4.952,16.208,60.459,16.208,65.188
	h0.992c0-4.772,18.458-60.283,18.458-65.188h28.531c0,9.153,1.025,25.476,3.077,48.976c2.052,23.498,3.076,35.952,3.076,37.373
	H99.092C99.092,466.421,94.206,412.155,94.163,407.738z M308.881,401.914l0.527-14.322h69.898l-0.463,14.254
	c-8.821-0.663-16.093-0.991-23.901-0.991c-0.087,8.356-0.132,17.665-0.132,27.922c0,15.917,0.243,30.971,0.729,45.164h-22.694
	c0.574-14.065,0.859-29.119,0.859-45.164c0-10.085-0.088-19.385-0.264-27.922C327.223,400.854,319.73,401.208,308.881,401.914z
	 M451.37,387.591l-0.728,14.521c-13.229-0.704-23.147-1.059-33.906-1.059c0.438,6.145,0.662,13.398,0.662,21.757
	c9.216,0,16.991-0.247,27.49-0.732v13.859c-10.325-0.442-18.094-0.666-27.49-0.666c0,8.979,0.171,17.38,0.53,25.202
	c12.082,0,22.877-0.372,36.553-1.127l-0.532,14.594h-57.341c0.569-13.358,0.86-28.407,0.86-45.164
	c0-16.095-0.291-29.823-0.86-41.185H451.37z"/>
</svg>
