<?xml version="1.0" encoding="utf-8"?>
<!-- Generator: Adobe Illustrator 16.0.0, SVG Export Plug-In . SVG Version: 6.00 Build 0)  -->
<!DOCTYPE svg PUBLIC "-//W3C//DTD SVG 1.1//EN" "http://www.w3.org/Graphics/SVG/1.1/DTD/svg11.dtd">
<svg version="1.1" id="Layer_1" xmlns="http://www.w3.org/2000/svg" xmlns:xlink="http://www.w3.org/1999/xlink" x="0px" y="0px"
	 width="720px" height="940px" viewBox="0 0 720 940" enable-background="new 0 0 720 940" xml:space="preserve">
<g>
	<g>
		<path fill-rule="evenodd" clip-rule="evenodd" fill="#FFFFFF" d="M309.861,457.172c-0.931,10.661,3.776,11.578,7.003,15.441
			c3.227,3.865,14.642,14.108,14.642,14.108l14.084-15.887c0,0-6.047-6.409-9.274-10.272c-3.224-3.863-4.917-6.576-3.984-17.237
			c0.934-10.662,2.921-23.047,3.847-33.627c0.928-10.58-3.762-11.491-6.975-15.325c-3.212-3.835-14.572-13.971-14.572-13.971
			l-14,15.744c0,0,6.007,6.335,9.22,10.17c3.213,3.835,4.897,6.52,3.973,17.1C312.9,433.996,310.794,446.511,309.861,457.172z
			 M360.02,690.626l0.354-10.841h-53.156l-0.404,10.892c8.251-0.535,13.95-0.805,18.68-0.805c0.132,6.487,0.199,13.565,0.199,21.23
			c0,12.206-0.216,23.652-0.653,34.345h17.258c-0.367-10.793-0.553-22.239-0.553-34.345c0-7.799,0.034-14.878,0.101-21.23
			C347.78,689.872,353.312,690.121,360.02,690.626z M120.706,639.035c20.902-11.416,30.596-9.829,37.442-6.351
			c6.532,3.319,7.317,8.646,7.53,13.255c0.048,1.076-0.042,2.465-0.042,2.465l16.694-0.337c0,0,0.037-2.145,0.034-2.915
			c-0.022-12.366-4.598-23.289-18.363-29.341c-12.383-5.444-25.152-3.92-46.136,6.919c-21.429,11.067-41.331,12.713-46.192-2.378
			c-9.22-28.623,34.311-44.089,88.025-29.798c31.838,8.47,59.077,30.566,88.417,40.883c37.711,13.258,60.094,2.392,90.164,27.445
			c0.328,0.272,11.704-13.955,11.704-13.955s-16.54-14.064-39.146-19.691c-18.461-4.595-37.979-1.578-52.038-10.008
			c-18.413-11.043-20.459-30.979-15.954-43.498c1.965-5.459,6.849-17.214,24.471-18.251c15.75-0.928,24.908,10.039,26.122,17.724
			c1.648,10.409-4.718,19.534-12.349,20.348c-6.504,0.694-12.7-4.548-14.864-9.168c-0.177-0.373-0.544-1.104-0.544-1.104
			l-10.403,11.021c0,0,0.182,0.902,0.432,1.284c13.109,20.059,35.295,16.686,46.688,3.501c11.06-12.797,11.006-31.561-0.701-44.796
			c-5.601-6.333-14.471-13.922-29.557-14.656c-17.042-0.824-26.649,4.601-34.451,12.402c-7.011,7.015-9.837,15.649-11.472,22.759
			c-0.154,0.672-0.283,1.34-0.398,2.007c-0.064,0.37-0.124,0.74-0.176,1.107c-0.025,0.162-0.048,0.322-0.07,0.485
			c-0.053,0.412-0.104,0.826-0.146,1.236c-0.008,0.095-0.02,0.188-0.031,0.28c-0.031,0.325-0.05,0.65-0.073,0.973
			c-0.02,0.294-0.042,0.589-0.056,0.88c-0.02,0.39-0.036,0.779-0.045,1.164c-0.003,0.146-0.005,0.291-0.008,0.437
			c-0.005,0.385-0.005,0.766,0,1.145c0,0.108,0,0.218,0.003,0.327c0.008,0.494,0.025,0.981,0.047,1.467
			c0.003,0.025,0.003,0.048,0.006,0.075c0.014,0.286,0.036,0.569,0.056,0.855c0.025,0.319,0.047,0.639,0.076,0.956
			c0.028,0.325,0.062,0.653,0.095,0.976c0.115,1.031,0.255,2.035,0.42,3.005c0.051,0.286,0.104,0.563,0.157,0.844
			c0.028,0.148,0.053,0.301,0.081,0.449c0.02,0.09,0.037,0.182,0.053,0.271c0.022,0.112,0.05,0.222,0.073,0.334
			c0.062,0.297,0.124,0.594,0.188,0.883c0.073,0.325,0.149,0.642,0.227,0.959c0.09,0.37,0.185,0.731,0.277,1.088
			c0.028,0.095,0.051,0.195,0.079,0.288c0.059,0.222,0.121,0.435,0.182,0.647c0.045,0.16,0.09,0.32,0.135,0.475
			c0.02,0.062,0.037,0.126,0.056,0.188c0.205,0.687,0.412,1.334,0.62,1.939c0.025,0.076,0.05,0.152,0.078,0.228
			c0.076,0.222,0.152,0.435,0.228,0.645c0.031,0.081,0.059,0.163,0.087,0.241c0.081,0.219,0.16,0.429,0.238,0.634
			c0.151,0.396,0.294,0.757,0.435,1.093c0.042,0.102,0.084,0.202,0.123,0.301c0.051,0.117,0.101,0.232,0.148,0.342
			c0.034,0.084,0.07,0.162,0.104,0.241c0.179,0.406,0.339,0.748,0.474,1.022c0.045,0.028,0.093,0.06,0.135,0.09
			c0.064,0.129,0.118,0.241,0.163,0.334c0.011,0.028,0.02,0.045,0.031,0.07c0.025,0.056,0.05,0.112,0.067,0.151
			c0.008,0.022,0.014,0.036,0.02,0.053c0.005,0.018,0.011,0.034,0.017,0.045c0,0.006,0.002,0.012,0.002,0.015
			c0.003,0.011,0,0.014-0.002,0.017c0,0-0.003,0-0.006-0.003c-0.008-0.006-0.022-0.022-0.039-0.051l-0.003-0.003
			c-0.003-0.002-0.003-0.005-0.006-0.011c-0.073-0.112-0.202-0.351-0.378-0.707c-0.479-0.324-0.976-0.652-1.486-0.983
			c-0.073-0.048-0.148-0.093-0.219-0.141c-0.445-0.285-0.899-0.571-1.368-0.863c-0.112-0.072-0.232-0.143-0.347-0.216
			c-0.435-0.266-0.875-0.535-1.329-0.808c-0.146-0.087-0.294-0.174-0.443-0.261c-0.432-0.258-0.872-0.516-1.32-0.776
			c-0.171-0.098-0.345-0.196-0.516-0.297c-0.438-0.249-0.88-0.502-1.332-0.754c-0.19-0.106-0.384-0.216-0.577-0.322
			c-0.443-0.247-0.895-0.497-1.349-0.743c-0.208-0.115-0.418-0.228-0.628-0.342c-0.454-0.244-0.911-0.488-1.374-0.734
			c-0.224-0.118-0.445-0.236-0.667-0.354c-0.465-0.244-0.934-0.488-1.407-0.734c-0.232-0.121-0.465-0.238-0.698-0.359
			c-0.477-0.244-0.958-0.49-1.443-0.734c-0.241-0.12-0.479-0.244-0.721-0.364c-0.493-0.247-0.99-0.493-1.489-0.74
			c-0.244-0.118-0.485-0.238-0.729-0.358c-0.513-0.25-1.031-0.502-1.55-0.752c-0.241-0.117-0.477-0.232-0.718-0.348
			c-0.541-0.258-1.088-0.519-1.637-0.776c-0.227-0.106-0.449-0.213-0.679-0.319c-0.586-0.277-1.18-0.553-1.777-0.83
			c-0.193-0.087-0.381-0.177-0.575-0.267c-0.687-0.316-1.382-0.63-2.077-0.944c-0.106-0.048-0.208-0.096-0.314-0.143
			c-1.637-0.74-3.297-1.473-4.971-2.198c-0.017-0.009-0.031-0.015-0.044-0.02c-1.573-0.682-3.157-1.357-4.755-2.024
			c-0.059-0.022-0.118-0.048-0.177-0.072c-1.553-0.648-3.112-1.287-4.676-1.915c-0.099-0.042-0.199-0.081-0.297-0.121
			c-0.785-0.313-1.57-0.628-2.358-0.937c-0.104-0.041-0.207-0.081-0.311-0.12c0,0,0-0.003-0.002-0.003
			c-0.794-0.311-1.59-0.622-2.383-0.928c-0.056-0.02-0.109-0.042-0.163-0.062c-0.729-0.28-1.458-0.558-2.184-0.836
			c-0.118-0.042-0.236-0.087-0.354-0.132c-0.003,0-0.003,0-0.003,0c-1.376-0.519-2.75-1.028-4.112-1.524
			c-0.32-0.115-0.637-0.228-0.953-0.342h-0.003c-2.089-0.752-4.16-1.478-6.198-2.167c-0.132-0.045-0.264-0.088-0.393-0.132
			c-0.847-0.283-1.685-0.562-2.518-0.833c-0.297-0.096-0.594-0.19-0.889-0.289c-0.006,0-0.008,0-0.014-0.002
			c-1.04-0.337-2.072-0.665-3.089-0.979c-26.145-8.077-47.975-9.978-71.442-21.797c-24.889-12.531-37.908-25.396-46.486-43.156
			c6.636,9.447,25.13,21.604,55.914,24.659c16.51,1.643,38.166-2.007,56.312-11.727c0.18,4.903,1.379,10.207,4.309,15.455
			c8.612,15.427,26.133,21.892,41.917,15.817c16.263-6.258,26.941-25.997,12.501-45.122c-0.272-0.361-1.06-0.838-1.06-0.838
			l-13.891,6.062c0,0,0.563,0.594,0.858,0.886c3.61,3.6,6.448,11.202,3.594,17.089c-3.347,6.902-14.847,10.995-23.325,4.735
			c-10.128-7.477-10.075-18.584-3.204-28.984c1.46-2.212,2.834-4.43,4.121-6.63c12.657-15.865,19.517-36.194,18.648-58.902
			c-0.04-1.015-0.107-2.042-0.188-3.077c-0.006-0.084-0.017-0.169-0.022-0.255c-0.095-1.134-0.216-2.279-0.361-3.432
			c-0.048-0.37-0.087-0.737-0.141-1.109c-0.039-0.272-0.084-0.545-0.126-0.817c-0.079-0.519-0.16-1.037-0.25-1.559
			c-0.412-2.414-0.948-4.857-1.595-7.313c-0.056-0.217-0.112-0.433-0.171-0.65c-0.443-1.629-0.939-3.26-1.489-4.894
			c0-0.001,0-0.001,0-0.001c-0.322-0.954-0.662-1.907-1.018-2.862c-0.034-0.087-0.067-0.175-0.101-0.263
			c-0.375-0.996-0.773-1.989-1.191-2.981c-0.003-0.01-0.008-0.02-0.011-0.028c-0.417-0.995-0.858-1.987-1.317-2.977
			c0.552,0.098,1.11,0.188,1.671,0.269c0.042,0.006,0.084,0.011,0.126,0.017c0.539,0.077,1.077,0.148,1.623,0.208
			c0.168,0.02,0.336,0.035,0.505,0.051c0.449,0.046,0.894,0.094,1.343,0.127c0.653,0.052,1.309,0.094,1.971,0.122
			c1.25,0.052,3.67-0.774,3.67-0.774l4.897-16.306c0,0-1.789,0.468-2.711,0.351c-20.168-2.581-25.713-7.913-38.682-16.714
			c-0.939-0.637-1.867-1.252-2.792-1.857c-0.224-0.148-0.451-0.294-0.675-0.44c-0.945-0.609-1.884-1.208-2.82-1.777
			c-0.995-0.649-2.01-1.282-3.047-1.902c-0.003-0.001-0.003-0.001-0.006-0.003c-1.037-0.62-2.094-1.222-3.173-1.811
			c-0.002-0.001-0.002-0.003-0.005-0.004c-1.416-0.771-2.865-1.516-4.354-2.229c-0.283-0.139-0.563-0.282-0.852-0.417
			c-0.351-0.164-0.707-0.321-1.062-0.482c-0.737-0.335-1.483-0.665-2.24-0.987c-1.407-0.597-2.837-1.176-4.306-1.721
			c-35.256-13.085-63.091-2.446-75.351,5.842c11.146-11.873,21.387-17.409,39.974-27.617c26.52-14.562,55.079-25.347,66.321-28.882
			c13.453-3.304,26.476-6.704,39.012-2.596c11.847,3.884,18.828,12.541,15.604,24.663c-2.7,10.148-14.216,14.069-21.138,10.741
			c-5.901-2.837-8.438-10.545-7.87-15.598c0.045-0.411,0.112-1.224,0.112-1.224l-14.609,3.86c0,0-0.292,0.861-0.303,1.315
			c-0.675,25.295,22.021,32.041,38.606,26.865c13.644-4.258,22.139-15.845,22.629-29.88c3.757,0.481,7.55-0.049,11.309-1.671
			c14.707-6.345,14.981-21.414,14.981-21.414s-11.309-6.75-13.568-7.74c0,0-2.333,10.025-7.88,12.016
			c-5.019,1.801-9.055-1.951-14.04-6.731c-0.39-0.373-0.748-0.705-1.096-1.021c-4.713-4.751-9.921-7.507-12.985-8.459
			c1.376-0.651,12.208-3.816,23.73-14.277c0.847-0.77,1.66-1.543,2.453-2.32c0.157-0.158,0.314-0.316,0.474-0.474
			c0.667-0.664,1.318-1.33,1.949-1.999c0.082-0.087,0.163-0.174,0.244-0.261c0.474-0.504,0.937-1.01,1.388-1.519
			c0.129-0.145,0.255-0.291,0.384-0.436c0.597-0.684,1.177-1.37,1.741-2.058c0.104-0.128,0.21-0.255,0.314-0.383
			c0.535-0.666,1.054-1.333,1.559-2.003c0.05-0.067,0.104-0.133,0.154-0.201c0.375-0.506,0.74-1.015,1.099-1.523
			c0.081-0.115,0.166-0.231,0.247-0.346c0.342-0.491,0.673-0.983,0.998-1.475c0.082-0.122,0.163-0.246,0.244-0.369
			c0.328-0.505,0.647-1.009,0.961-1.517c0.053-0.09,0.109-0.181,0.163-0.271c0.331-0.543,0.656-1.086,0.967-1.633
			c0.087-0.143,0.174-0.294,0.261-0.443c0.003-0.004,0.005-0.01,0.008-0.014c0.14-0.238,0.283-0.485,0.423-0.738
			c0.05-0.087,0.098-0.174,0.146-0.261c0.101-0.183,0.202-0.367,0.303-0.558c0.059-0.106,0.118-0.216,0.174-0.327
			c0.469-0.887,0.951-1.864,1.453-2.942c0.02-0.041,0.039-0.081,0.056-0.122c0.199-0.428,0.4-0.871,0.605-1.332
			c0.039-0.086,0.076-0.166,0.115-0.252c0.124-0.286,0.252-0.586,0.381-0.884c0.048-0.112,0.095-0.22,0.146-0.334
			c0.073-0.177,0.151-0.36,0.228-0.541c0.106-0.25,0.21-0.499,0.316-0.757c0.079-0.193,0.16-0.391,0.241-0.59
			c0.056-0.136,0.115-0.277,0.171-0.416c0.14-0.349,0.283-0.703,0.426-1.065c0.104-0.259,0.208-0.521,0.311-0.788
			c0.084-0.217,0.171-0.436,0.255-0.658c0.118-0.304,0.238-0.615,0.359-0.929c0.19-0.506,0.39-1.027,0.588-1.56
			c0.022-0.063,0.045-0.124,0.067-0.187c0.28-0.75,0.563-1.518,0.858-2.327c5.596-15.44,16.353-31.881,31.981-31.512
			c13.277,0.314,22.041,11.433,22.335,21.484c0.345,11.94-7.44,17.466-14.608,19.299c-9.296,2.375-17.118-4.9-17.118-4.9
			l-7.961,13.455c0,0,0.406,0.743,0.726,1.014c19.943,16.906,51.238,6.491,56.901-20.294c4.873-23.06-12.615-41.897-31.964-46.66
			c-0.779-0.192-1.564-0.348-2.355-0.486c-0.241-0.041-0.485-0.074-0.729-0.111c-2.431-0.372-4.906-0.5-7.396-0.365
			c-0.059,0.003-0.121,0.012-0.179,0.014c-1.612,0.097-3.227,0.306-4.842,0.613c-0.092,0.018-0.182,0.036-0.274,0.053
			c-0.877,0.174-1.758,0.374-2.632,0.61c-0.054,0.012-0.109,0.025-0.163,0.041c-2.584,0.708-5.149,1.697-7.664,2.946
			c-0.042,0.021-0.084,0.042-0.126,0.062c-0.665,0.333-1.323,0.686-1.979,1.056c-0.034,0.02-0.07,0.038-0.104,0.058
			c-0.591,0.335-1.177,0.687-1.758,1.052c-0.034,0.021-0.067,0.041-0.101,0.062c-0.592,0.373-1.178,0.761-1.758,1.165
			c-0.017,0.013-0.037,0.025-0.053,0.037c-0.595,0.415-1.186,0.844-1.769,1.291c-0.067,0.052-0.135,0.104-0.202,0.156
			c-0.774,0.599-1.542,1.222-2.296,1.878c-0.005,0.006-0.011,0.01-0.017,0.016c-1.579,1.371-3.106,2.865-4.578,4.484
			c-1.606-8.284-4.732-15.885-8.621-22.679c-0.011-0.017-0.02-0.035-0.031-0.052c-0.311-0.542-0.625-1.079-0.948-1.61
			c-0.017-0.031-0.036-0.061-0.053-0.09c-0.317-0.523-0.633-1.04-0.958-1.552c-0.02-0.031-0.039-0.062-0.059-0.094
			c-0.325-0.515-0.656-1.025-0.99-1.529c-0.014-0.022-0.031-0.045-0.044-0.066c-0.345-0.523-0.695-1.042-1.051-1.553
			c-0.025-0.039-0.054-0.079-0.082-0.118c-0.325-0.468-0.65-0.931-0.981-1.391c-0.006-0.008-0.014-0.017-0.02-0.025
			c-0.27-0.373-0.539-0.742-0.811-1.107c-0.011-0.016-0.022-0.031-0.034-0.045c-0.314-0.425-0.633-0.845-0.95-1.262
			c-0.064-0.084-0.129-0.166-0.193-0.25c-0.354-0.458-0.709-0.911-1.068-1.36c-0.014-0.017-0.028-0.035-0.042-0.053
			c-0.241-0.299-0.479-0.596-0.72-0.891c-0.112-0.137-0.225-0.273-0.339-0.409c-0.23-0.279-0.46-0.557-0.692-0.831
			c-0.056-0.067-0.112-0.133-0.168-0.199c-0.292-0.342-0.583-0.681-0.872-1.016c-0.138-0.157-0.275-0.312-0.412-0.467
			c-0.21-0.243-0.423-0.483-0.636-0.722c-0.096-0.104-0.188-0.206-0.281-0.309c-0.373-0.415-0.749-0.823-1.121-1.224
			c-0.045-0.049-0.09-0.098-0.135-0.146c-0.364-0.391-0.729-0.776-1.093-1.155c-0.003-0.001-0.003-0.003-0.006-0.005
			c-0.176-0.184-0.353-0.37-0.532-0.553c-0.177-0.182-0.354-0.36-0.53-0.54c-0.174-0.176-0.35-0.356-0.524-0.531
			c-0.037-0.035-0.07-0.07-0.106-0.105c-0.667-0.667-1.334-1.316-1.994-1.943c-12.091-11.5-22.144-21.707-23.479-37.869
			c-1.362-16.549,9.902-28.117,23.33-23.13c12.032,4.47,10.791,20.722,2.147,27.58c-0.454,0.362-1.413,1.035-1.413,1.035
			l11.867,11.825c0,0,0.947-0.329,1.309-0.659c0.323-0.293,0.639-0.599,0.956-0.911c0.104-0.104,0.205-0.214,0.308-0.321
			c0.21-0.213,0.418-0.429,0.623-0.65c0.124-0.133,0.244-0.271,0.365-0.405c0.182-0.206,0.364-0.412,0.546-0.625
			c0.126-0.148,0.252-0.302,0.375-0.454c0.171-0.208,0.339-0.417,0.508-0.629c0.126-0.163,0.252-0.327,0.378-0.492
			c0.16-0.211,0.319-0.426,0.477-0.643c0.123-0.174,0.25-0.347,0.373-0.523c0.151-0.217,0.3-0.44,0.449-0.663
			c0.124-0.182,0.244-0.362,0.364-0.547c0.146-0.227,0.289-0.458,0.429-0.689c0.118-0.188,0.235-0.373,0.348-0.563
			c0.157-0.265,0.308-0.536,0.462-0.806c0.213-0.378,0.42-0.763,0.623-1.151c0.101-0.188,0.199-0.374,0.297-0.565
			c0.132-0.262,0.258-0.53,0.384-0.796c0.087-0.18,0.174-0.359,0.258-0.54c0.129-0.278,0.25-0.56,0.373-0.84
			c0.076-0.172,0.151-0.345,0.224-0.519c0.123-0.294,0.241-0.59,0.359-0.887c0.062-0.161,0.124-0.322,0.185-0.485
			c0.121-0.313,0.235-0.629,0.348-0.946c0.047-0.14,0.095-0.28,0.143-0.42c0.115-0.344,0.23-0.687,0.337-1.033
			c0.031-0.094,0.056-0.188,0.084-0.282c0.667-2.21,1.149-4.488,1.41-6.787c0.003-0.02,0.005-0.04,0.008-0.059
			c0.047-0.445,0.087-0.892,0.121-1.338c0.003-0.043,0.008-0.088,0.011-0.133c0.031-0.443,0.05-0.886,0.064-1.329
			c0-0.038,0.002-0.077,0.002-0.115c0.012-0.457,0.014-0.915,0.009-1.372v-0.011c-0.053-3.335-0.628-6.647-1.831-9.799
			c-0.008-0.025-0.02-0.05-0.028-0.076c-0.166-0.429-0.342-0.855-0.533-1.278c-0.011-0.027-0.025-0.055-0.036-0.082
			c-0.193-0.43-0.398-0.855-0.62-1.277c-0.948-1.825-2.125-3.58-3.577-5.229c-11.329-12.851-24.446-11.383-28.766-9.743
			c-0.448,0.169,1.188-1.148,1.301-1.298c8.943-11.996,38.971-11.343,65.603-10.069c29.916,1.431,42.25-10.71,43.63-28.871
			c1.216-16.041-10.404-29.206-10.404-29.206s-13.151,8.415-15.06,10.001c0,0,13.723,17.778,2.705,25.695
			c-13.342,9.587-71.028-6.208-99.477,21.417c-25.761,25.014-21.413,53.792-14.939,68.835c3.313,7.7,6.316,11.09,5.786,10.976
			c-16.33-3.535-39.705-0.283-55.06,10.466c-17.171,12.025-26.79,31.77-25.497,52.116c1.856,29.159,21.884,51.298,54.922,48.229
			c29.032-2.696,43.31-26.871,34.774-48.318c-8.783-22.067-32.733-20.328-43.535-14.86c-0.516,0.261-2.621,1.591-2.621,1.591
			l4.909,15.169c0,0,18.562-10.355,25.719,4.874c5.582,11.878-6.473,24.229-21.102,25.156c-18.298,1.159-34.076-8.672-35.573-32.196
			c-1.873-29.471,21.718-47.465,51.665-47.465c31.345,0,49.295,25.291,52.41,43.666c3.659,21.58-0.278,43.819-25.357,59.709
			c-26.616,16.865-62.32,19.478-109.939,44.656c-0.86,0.456,12.229-14.075,9.159-39.139c-3.185-26.021-11.55-31.474-16.254-50.298
			c-3.992-15.983,0.662-33.968,6.501-47.378c5.13-11.777,12.363-19.154,12.363-19.154l-15.043-11.282
			c0,0-15.89,16.622-21.701,43.417c-6.481,29.897,4.323,44.423,3.255,43.808c-15.545-8.935-34.614-2.416-44.541,9.411
			c-9.677,11.526-12.103,29.25-7.474,46.727c0.238,0.9,0.973,2.272,0.973,2.272l17.877-3.245c0,0-0.852-1.079-1.046-1.741
			c-5.963-20.514,1.093-37.848,20.552-37.848c20.978,0,31.555,26.547,25.141,46.049c-7.651,23.26-32.156,33.857-56.674,61.038
			C22.56,386.901,7.413,420.969,9.905,461.67c2.363,38.586,21.337,68.74,43.908,87.343c22.932,18.9,44.74,23.104,40.924,23.367
			c-11.228,0.773-26.602,7.316-34.443,17.793c-8.13,10.869-12.063,29.551-1.304,45.149
			C71.073,652.839,97.075,651.938,120.706,639.035z M50.348,397.968c0.076-0.081,0.138-0.147,0.222-0.241
			c16.428-18.259,51.76-30.939,78.88-12.077c25.556,17.771,29.464,51.967,12.203,68.849c-15.845,15.496-40.033,15.136-51.117,4.013
			c-10.348-10.382-11.256-27.403,0.608-33.004c15.211-7.181,22.881,12.67,22.881,12.67l12.615-7.571c0,0-0.771-2.37-1-2.903
			c-4.819-11.12-21.298-28.768-42.116-17.348c-20.238,11.102-26.049,36.444-5.312,59.215c19.63,21.554,56.422,15.726,74.218-1.837
			c15.82-15.615,19.916-42.29,12.044-63.869c-1.478-4.053-2.989-7.532-4.544-10.565c11.802,11.538,18.183,25.627,20.333,35.542
			c4.399,20.283,0.109,40.55-10.751,55.435c-11.486,15.738-32.68,30.877-69.553,28.665c-36.89-2.212-63.693-26.652-64.507-71.174
			C35.145,425.02,40.516,409.801,50.348,397.968z M277.835,679.785c0.4,10.387,0.603,19.131,0.603,26.224h-23.182
			c0-8.035,0.202-16.776,0.605-26.224h-16.619c0.438,8.943,0.656,19.383,0.656,31.317c0,11.803-0.218,23.249-0.656,34.345h16.619
			c-0.336-11.968-0.504-21.617-0.504-28.948h22.979c0,8.169-0.168,17.818-0.501,28.948h16.616
			c-0.471-10.02-0.704-21.466-0.704-34.345c0-12.338,0.232-22.778,0.704-31.317H277.835z M360.289,128.866
			c9.781,0,17.712-7.93,17.712-17.71c0-0.125-0.017-0.26-0.022-0.389c0.017-0.301,0.022-0.605,0.022-0.91
			c0-9.783-17.698-30.288-17.698-30.288s-17.729,20.505-17.729,30.288c0,0.306,0.008,0.608,0.022,0.911
			c-0.006,0.127-0.022,0.262-0.022,0.387C342.574,120.936,350.505,128.866,360.289,128.866z M360.277,167.463
			c-32.427,0-58.439-26.219-58.439-58.76c0-2.542,0.174-5.053,0.49-7.53h-16.986c-0.289,2.867-0.423,5.782-0.387,8.747
			c0.491,39.229,35.043,75,75.309,75c44.294,0,75.07-36.088,75.558-75.242c0.037-2.882-0.089-5.716-0.358-8.504h-16.966
			c0.3,2.4,0.462,4.832,0.462,7.291C418.959,140.943,392.708,167.463,360.277,167.463z M385.702,441.04
			c-0.928,10.58-4.393,20.95-1.175,24.781c14.415,17.159,32.506,28.344,56.638,21.072c22.912-6.904,36.008-25.964,37.953-55.258
			c2.158-32.462-10.959-57.651-29.871-76.609c-21.499-21.556-52.797-31.329-77.354-33.334
			c-72.488-5.919-122.258,40.56-132.409,90.232c-10.263,50.226,3.711,78.975,34.844,103.405
			c30.846,24.199,81.162,22.859,117.127,12.515c0.625-0.18,1.911-0.362,1.911-0.362l-3.369-16.666c0,0-1.617,0.056-2.411,0.246
			c-28.662,7.009-71.594,10.454-96.129-5.413c-27.056-17.499-42.326-43.016-35.062-86.348
			c7.625-45.509,48.878-86.499,114.035-80.799c24.611,2.153,48.923,9.384,68.43,30.158c17.854,19.016,27.024,39.525,22.021,69.517
			c-4.755,28.494-22.933,35.226-35.657,35.011c-11.34-0.191-21.799-11.894-21.354-17.009c0.928-10.58,3.451-35.539,4.379-46.119
			c0.926-10.58-3.765-11.491-6.978-15.325c-3.213-3.835-13.558-13.971-13.558-13.971l-13.353,15.744c0,0,6.008,6.336,9.221,10.171
			s4.897,6.52,3.973,17.1C386.627,434.355,386.627,430.46,385.702,441.04z M346.726,457.675c-0.934,10.662,3.776,11.578,7,15.441
			c3.227,3.863,14.645,14.107,14.645,14.107l14.085-16.535c0,0-6.047-6.407-9.274-10.271c-3.227-3.863-4.917-6.575-3.983-17.237
			c0.931-10.661,2.921-23.048,3.847-33.628c0.925-10.579-3.763-11.49-6.976-15.325c-3.212-3.835-14.572-13.971-14.572-13.971
			l-14,16.395c0,0,6.005,6.335,9.218,10.169c3.213,3.835,4.9,6.52,3.973,17.1C349.762,434.501,347.66,447.016,346.726,457.675z
			 M417.137,745.447l0.401-11.096c-10.398,0.571-18.606,0.857-27.796,0.857c-0.27-5.951-0.401-12.338-0.401-19.164
			c7.144,0,13.056,0.168,20.902,0.505v-10.541c-7.981,0.37-13.894,0.555-20.902,0.555c0-6.355-0.168-11.866-0.504-16.54
			c8.183,0,15.721,0.27,25.785,0.805l0.553-11.043h-41.646c0.435,8.641,0.653,19.08,0.653,31.317c0,12.744-0.219,24.19-0.653,34.345
			H417.137z M550.432,679.785c0,3.731-27.897,41-29.305,44.328h-0.757c0.471-6.655,0.939-35.789,1.41-44.328h-16.565
			c0.569,10.925,0.855,22.425,0.855,34.496c0,11.867-0.286,22.257-0.855,31.166h14.83c0-3.563,28.032-41.354,29.206-44.381h0.754
			c-0.369,8.272-0.787,38.833-1.258,44.381h16.615c-0.502-8.909-0.754-19.299-0.754-31.166c0-12.071,0.252-23.571,0.754-34.496
			H550.432z M453.004,679.785c-0.603,3.698-1.469,7.563-2.593,11.598c-1.122,4.034-2.397,8.013-3.821,11.929
			c-1.427,3.917-2.952,7.656-4.581,11.22c-1.626,3.565-3.269,6.733-4.928,9.506c-1.663,2.775-3.264,5.019-4.806,6.734
			c-1.545,1.716-2.952,2.691-4.228,2.924l0.505,12.609c1.977-0.101,6.302-0.706,8.214-1.816s3.754-2.596,5.534-4.463
			c1.777-1.867,3.479-4.043,5.104-6.532c1.629-2.486,3.171-5.167,4.632-8.043c1.458-2.873,2.817-5.856,4.073-8.951
			c1.259-3.092,2.408-6.195,3.448-9.305c1.037-3.108,1.951-6.146,2.741-9.103c0.788-2.958,1.433-4.144,1.938-6.734h7.106
			c0.199,5.784,0.3,11.525,0.3,20.401c0,12.777-0.201,24.005-0.603,33.688h15.671c-0.4-10.592-0.603-22.273-0.603-35.051
			c0-11.497,0.202-21.702,0.603-30.611H453.004z M483.604,792.133c0.547-6.372-1.595-13.283-7.903-18.643
			c-12.851-10.917-28.536-4.06-35.685,6.027c-0.442,0.631-1.278,1.872-1.278,1.872l9.134,9.215c0,0,1.259-0.812,1.917-1.662
			c2.829-3.645,7.693-8.13,14.424-5.257c5.82,2.484,5.184,10.535,1.948,14.918c-2.949,3.988-9.778,6.846-12.991,7.781
			c-0.081,0.023-0.148,0.043-0.227,0.065c-15.885,2.602-27.098-4.559-37.448-12.389c-15.236-11.525-27.358-22.049-27.358-22.049
			l-12.263,10.7c0,0,23.375,23.325,43.521,34.373c28.965,15.882,59.149-2.557,74.697-11.999c14.031-8.522,33.324-13.15,44.818-2.593
			c9.768,8.968,9.014,23.072,2.599,30.804c-7.616,9.182-17.114,8.206-23.708,4.864c-8.551-4.334-9.624-14.937-9.624-14.937
			l-14.858,4.853c0,0-0.186,0.824-0.123,1.239c3.82,25.797,34.204,38.575,56.133,22.212c18.878-14.091,18.175-39.723,6.784-56.021
			C543.39,777.306,513.479,771.749,483.604,792.133z M625.418,679.785c0.4,10.387,0.603,18.335,0.603,25.43h-25.559
			c0-8.034,0.201-15.982,0.605-25.43h-16.619c0.438,8.943,0.656,19.383,0.656,31.317c0,11.803-0.219,23.249-0.656,34.345h16.619
			c-0.337-11.968-0.505-21.617-0.505-28.948h25.356c0,8.169-0.168,17.818-0.501,28.948h16.615
			c-0.471-10.02-0.703-21.466-0.703-34.345c0-12.338,0.232-22.778,0.703-31.317H625.418z M671.66,359.126
			c-24.519-27.181-49.023-37.777-56.674-61.038c-6.415-19.502,4.163-46.049,25.141-46.049c19.459,0,26.515,17.333,20.552,37.848
			c-0.19,0.662-1.045,1.741-1.045,1.741l17.877,3.245c0,0,0.734-1.373,0.973-2.272c4.629-17.477,2.204-35.201-7.471-46.727
			c-9.93-11.827-28.996-18.346-44.541-9.411c-1.071,0.615,9.733-13.911,3.252-43.808c-5.812-26.795-21.701-43.417-21.701-43.417
			l-15.043,11.282c0,0,7.232,7.377,12.363,19.154c5.839,13.41,10.492,31.395,6.501,47.378c-4.704,18.824-13.07,24.276-16.255,50.298
			c-3.069,25.064,10.022,39.594,9.162,39.139c-47.622-25.178-83.326-27.791-109.942-44.656
			c-25.079-15.89-29.016-38.129-25.356-59.709c3.114-18.375,21.064-43.666,52.41-43.666c29.945,0,53.536,17.994,51.664,47.465
			c-1.497,23.523-17.275,33.355-35.57,32.196c-14.631-0.928-26.686-13.278-21.104-25.156c7.159-15.229,25.718-4.874,25.718-4.874
			l4.909-15.169c0,0-2.105-1.33-2.621-1.591c-10.802-5.468-34.751-7.208-43.534,14.86c-8.537,21.447,5.741,45.623,34.773,48.318
			c33.038,3.069,53.069-19.07,54.922-48.229c1.295-20.346-8.326-40.09-25.497-52.116c-15.354-10.75-38.729-14.001-55.057-10.466
			c-0.532,0.115,2.47-3.276,5.783-10.976c6.474-15.043,10.821-43.822-14.939-68.835c-28.449-27.625-86.135-11.829-99.477-21.417
			c-11.018-7.917,2.708-25.695,2.708-25.695c-1.912-1.587-15.062-10.001-15.062-10.001s-11.62,13.165-10.403,29.206
			c1.379,18.161,13.714,30.302,43.629,28.871c26.636-1.274,56.66-1.927,65.606,10.069c0.109,0.15,1.746,1.467,1.298,1.298
			c-4.32-1.64-17.435-3.107-28.766,9.743c-1.452,1.648-2.63,3.403-3.577,5.229c-0.219,0.422-0.424,0.847-0.62,1.277
			c-0.011,0.027-0.025,0.055-0.036,0.082c-0.19,0.423-0.367,0.849-0.533,1.278c-0.008,0.025-0.02,0.05-0.027,0.076
			c-1.203,3.152-1.777,6.464-1.831,9.799v0.011c-0.006,0.457-0.003,0.916,0.009,1.372c0.003,0.038,0.003,0.077,0.003,0.115
			c0.014,0.443,0.036,0.886,0.066,1.329c0.003,0.045,0.006,0.09,0.009,0.133c0.034,0.447,0.073,0.893,0.123,1.338
			c0,0.02,0.003,0.04,0.006,0.059c0.261,2.299,0.743,4.577,1.41,6.787c0.028,0.094,0.056,0.188,0.084,0.282
			c0.106,0.346,0.222,0.689,0.337,1.033c0.047,0.14,0.095,0.28,0.146,0.42c0.109,0.317,0.228,0.632,0.345,0.946
			c0.062,0.163,0.123,0.324,0.188,0.485c0.115,0.297,0.236,0.593,0.359,0.887c0.07,0.174,0.146,0.346,0.222,0.519
			c0.123,0.28,0.243,0.562,0.372,0.84c0.085,0.181,0.172,0.36,0.259,0.54c0.126,0.266,0.252,0.534,0.384,0.796
			c0.098,0.191,0.199,0.377,0.297,0.565c0.202,0.388,0.409,0.772,0.625,1.151c0.151,0.271,0.303,0.541,0.46,0.806
			c0.112,0.19,0.232,0.375,0.348,0.563c0.144,0.231,0.283,0.462,0.429,0.689c0.121,0.185,0.241,0.365,0.365,0.547
			c0.148,0.223,0.297,0.446,0.451,0.663c0.12,0.176,0.246,0.349,0.373,0.523c0.156,0.217,0.313,0.432,0.474,0.643
			c0.126,0.166,0.252,0.33,0.378,0.492c0.168,0.213,0.337,0.422,0.508,0.629c0.123,0.152,0.249,0.306,0.375,0.454
			c0.183,0.213,0.365,0.419,0.547,0.625c0.121,0.135,0.241,0.272,0.365,0.405c0.204,0.221,0.412,0.438,0.622,0.65
			c0.104,0.106,0.204,0.217,0.308,0.321c0.317,0.312,0.634,0.618,0.957,0.911c0.361,0.33,1.309,0.659,1.309,0.659l11.867-11.825
			c0,0-0.959-0.673-1.413-1.035c-8.644-6.858-9.885-23.11,2.147-27.58c13.429-4.987,24.692,6.581,23.33,23.13
			c-1.332,16.162-11.388,26.369-23.479,37.869c-0.659,0.626-1.323,1.276-1.993,1.943c-0.034,0.035-0.07,0.07-0.106,0.105
			c-0.174,0.175-0.348,0.355-0.524,0.531c-0.177,0.18-0.354,0.357-0.53,0.54c-0.177,0.183-0.355,0.369-0.532,0.553
			c0,0.002-0.003,0.004-0.006,0.005c-0.364,0.378-0.726,0.764-1.093,1.155c-0.045,0.048-0.09,0.097-0.135,0.146
			c-0.373,0.401-0.746,0.809-1.122,1.224c-0.092,0.103-0.185,0.205-0.277,0.309c-0.213,0.238-0.426,0.479-0.639,0.722
			c-0.138,0.154-0.275,0.31-0.409,0.467c-0.292,0.335-0.584,0.674-0.872,1.016c-0.057,0.066-0.115,0.132-0.171,0.199
			c-0.23,0.274-0.463,0.552-0.692,0.831c-0.112,0.136-0.228,0.272-0.34,0.409c-0.241,0.294-0.479,0.592-0.721,0.891
			c-0.014,0.018-0.027,0.036-0.042,0.053c-0.358,0.449-0.715,0.901-1.067,1.36c-0.064,0.084-0.129,0.166-0.191,0.25
			c-0.319,0.417-0.639,0.837-0.953,1.262c-0.011,0.014-0.022,0.029-0.033,0.045c-0.272,0.366-0.541,0.734-0.811,1.107
			c-0.005,0.008-0.014,0.017-0.02,0.025c-0.331,0.46-0.655,0.922-0.981,1.391c-0.027,0.039-0.056,0.079-0.081,0.118
			c-0.355,0.512-0.703,1.03-1.051,1.553c-0.015,0.021-0.028,0.043-0.045,0.066c-0.334,0.504-0.662,1.015-0.99,1.529
			c-0.02,0.032-0.039,0.063-0.059,0.094c-0.322,0.512-0.642,1.029-0.959,1.552c-0.017,0.029-0.036,0.059-0.053,0.09
			c-0.319,0.531-0.637,1.068-0.948,1.61c-0.008,0.017-0.02,0.035-0.03,0.052c-3.889,6.794-7.012,14.395-8.62,22.679
			c-1.473-1.619-3-3.113-4.576-4.484c-0.008-0.006-0.014-0.01-0.02-0.016c-0.754-0.656-1.52-1.279-2.296-1.878
			c-0.067-0.052-0.134-0.104-0.201-0.156c-0.583-0.447-1.175-0.876-1.77-1.291c-0.017-0.011-0.036-0.024-0.053-0.037
			c-0.581-0.403-1.167-0.792-1.758-1.165c-0.031-0.021-0.064-0.041-0.099-0.062c-0.583-0.366-1.169-0.717-1.761-1.052
			c-0.033-0.02-0.067-0.038-0.104-0.058c-0.653-0.37-1.314-0.722-1.979-1.056c-0.042-0.02-0.084-0.041-0.126-0.062
			c-2.515-1.249-5.077-2.239-7.664-2.946c-0.054-0.016-0.106-0.028-0.163-0.041c-0.874-0.236-1.752-0.436-2.632-0.61
			c-0.093-0.017-0.183-0.035-0.272-0.053c-1.614-0.307-3.232-0.516-4.844-0.613c-0.06-0.002-0.121-0.011-0.18-0.014
			c-2.489-0.136-4.965-0.007-7.396,0.365c-0.244,0.037-0.487,0.07-0.729,0.111c-0.791,0.139-1.576,0.294-2.355,0.486
			c-19.349,4.763-36.837,23.601-31.962,46.66c5.66,26.785,36.958,37.2,56.898,20.294c0.319-0.271,0.727-1.014,0.727-1.014
			l-7.962-13.455c0,0-7.819,7.276-17.118,4.9c-7.168-1.833-14.953-7.359-14.605-19.299c0.291-10.052,9.058-21.17,22.332-21.484
			c15.629-0.369,26.386,16.072,31.984,31.512c0.291,0.809,0.574,1.577,0.855,2.327c0.021,0.063,0.044,0.124,0.069,0.187
			c0.199,0.533,0.396,1.054,0.589,1.56c0.118,0.314,0.238,0.625,0.356,0.929c0.087,0.222,0.171,0.44,0.255,0.658
			c0.104,0.266,0.207,0.528,0.311,0.788c0.144,0.363,0.286,0.716,0.427,1.065c0.059,0.139,0.115,0.28,0.171,0.416
			c0.081,0.199,0.162,0.397,0.241,0.59c0.106,0.258,0.213,0.507,0.316,0.757c0.076,0.181,0.154,0.364,0.228,0.541
			c0.051,0.114,0.098,0.222,0.146,0.334c0.129,0.298,0.258,0.598,0.384,0.884c0.037,0.087,0.073,0.167,0.112,0.252
			c0.205,0.461,0.407,0.904,0.605,1.332c0.02,0.041,0.037,0.081,0.057,0.122c0.501,1.078,0.983,2.055,1.452,2.942
			c0.059,0.111,0.114,0.22,0.174,0.327c0.101,0.191,0.201,0.375,0.303,0.558c0.047,0.087,0.098,0.174,0.146,0.261
			c0.143,0.253,0.283,0.5,0.423,0.738c0.003,0.004,0.006,0.01,0.009,0.014c0.087,0.148,0.174,0.3,0.261,0.443
			c0.314,0.547,0.637,1.089,0.967,1.633c0.054,0.09,0.109,0.181,0.166,0.271c0.311,0.507,0.631,1.012,0.959,1.517
			c0.081,0.123,0.162,0.247,0.243,0.369c0.325,0.492,0.656,0.984,0.998,1.475c0.082,0.115,0.166,0.231,0.247,0.346
			c0.358,0.509,0.724,1.018,1.102,1.523c0.048,0.067,0.102,0.133,0.151,0.201c0.505,0.67,1.023,1.337,1.562,2.003
			c0.102,0.127,0.208,0.255,0.312,0.383c0.563,0.688,1.144,1.374,1.741,2.058c0.129,0.146,0.255,0.292,0.384,0.436
			c0.451,0.509,0.917,1.015,1.388,1.519c0.081,0.087,0.162,0.174,0.244,0.261c0.631,0.669,1.281,1.335,1.948,1.999
			c0.159,0.157,0.316,0.315,0.474,0.474c0.796,0.777,1.606,1.551,2.453,2.32c11.521,10.461,22.354,13.626,23.733,14.277
			c-3.063,0.952-8.275,3.708-12.988,8.459c-0.348,0.315-0.706,0.648-1.093,1.021c-4.987,4.78-9.024,8.532-14.04,6.731
			c-5.551-1.99-7.883-12.016-7.883-12.016c-2.26,0.99-13.569,7.74-13.569,7.74s0.275,15.069,14.982,21.414
			c3.759,1.622,7.552,2.152,11.312,1.671c0.487,14.036,8.981,25.622,22.629,29.88c16.582,5.175,39.279-1.57,38.604-26.865
			c-0.012-0.454-0.3-1.315-0.3-1.315l-14.611-3.86c0,0,0.066,0.813,0.111,1.224c0.569,5.053-1.968,12.761-7.869,15.598
			c-6.919,3.328-18.438-0.593-21.138-10.741c-3.224-12.122,3.757-20.779,15.606-24.663c12.537-4.108,25.557-0.708,39.01,2.596
			c11.245,3.535,39.804,14.32,66.321,28.882c18.586,10.208,28.827,15.744,39.977,27.617c-12.263-8.289-40.098-18.928-75.354-5.842
			c-1.469,0.545-2.898,1.124-4.306,1.721c-0.754,0.322-1.503,0.652-2.24,0.987c-0.354,0.161-0.712,0.318-1.062,0.482
			c-0.289,0.135-0.566,0.278-0.853,0.417c-1.488,0.713-2.938,1.458-4.351,2.229c-0.003,0.001-0.006,0.002-0.009,0.004
			c-1.079,0.589-2.136,1.191-3.173,1.811c0,0.001-0.003,0.001-0.006,0.003c-1.037,0.62-2.052,1.253-3.047,1.902
			c-0.937,0.569-1.876,1.168-2.82,1.777c-0.225,0.146-0.452,0.292-0.676,0.44c-0.926,0.605-1.854,1.221-2.793,1.857
			c-12.968,8.801-18.514,14.133-38.682,16.714c-0.919,0.118-2.711-0.351-2.711-0.351l4.898,16.306c0,0,2.419,0.826,3.672,0.774
			c0.662-0.028,1.315-0.07,1.969-0.122c0.451-0.034,0.896-0.081,1.343-0.127c0.168-0.016,0.336-0.031,0.504-0.051
			c0.547-0.06,1.085-0.131,1.624-0.208c0.041-0.006,0.084-0.011,0.126-0.017c0.561-0.081,1.118-0.171,1.671-0.269
			c-0.46,0.99-0.9,1.982-1.318,2.977c-0.002,0.008-0.008,0.019-0.011,0.028c-0.418,0.992-0.815,1.986-1.191,2.981
			c-0.034,0.088-0.067,0.176-0.101,0.263c-0.356,0.955-0.695,1.908-1.016,2.862c0,0,0,0,0,0.001
			c-0.549,1.633-1.045,3.265-1.491,4.894c-0.059,0.217-0.115,0.433-0.171,0.65c-0.647,2.456-1.181,4.899-1.596,7.313
			c-0.089,0.521-0.171,1.04-0.249,1.559c-0.042,0.272-0.087,0.545-0.126,0.817c-0.051,0.372-0.093,0.739-0.138,1.109
			c-0.146,1.152-0.269,2.297-0.364,3.432c-0.006,0.085-0.014,0.171-0.022,0.255c-0.081,1.034-0.148,2.062-0.188,3.077
			c-0.869,22.708,5.99,43.037,18.651,58.902c1.283,2.2,2.657,4.418,4.118,6.63c6.871,10.4,6.924,21.508-3.202,28.984
			c-8.48,6.26-19.979,2.167-23.327-4.735c-2.854-5.887-0.017-13.489,3.597-17.089c0.292-0.292,0.855-0.886,0.855-0.886
			l-13.892-6.062c0,0-0.784,0.477-1.06,0.838c-14.44,19.125-3.762,38.864,12.504,45.122c15.783,6.074,33.302-0.391,41.914-15.817
			c2.93-5.248,4.129-10.552,4.309-15.455c18.146,9.72,39.803,13.369,56.312,11.727c30.784-3.056,49.278-15.212,55.917-24.659
			c-8.581,17.76-21.598,30.625-46.489,43.156c-23.468,11.819-45.298,13.72-71.442,21.797c-1.018,0.313-2.05,0.642-3.09,0.979
			c-0.005,0.002-0.008,0.002-0.011,0.002c-0.297,0.099-0.595,0.193-0.892,0.289c-0.833,0.271-1.671,0.55-2.518,0.833
			c-0.129,0.044-0.261,0.087-0.393,0.132c-2.035,0.689-4.106,1.415-6.198,2.167c0,0,0,0-0.003,0
			c-0.316,0.114-0.634,0.227-0.95,0.342c-0.003,0-0.003,0-0.003,0c-1.362,0.496-2.736,1.006-4.112,1.524
			c-0.121,0.045-0.235,0.09-0.354,0.132c-0.729,0.278-1.458,0.556-2.187,0.836c-0.054,0.02-0.106,0.042-0.16,0.062
			c-0.796,0.306-1.592,0.617-2.386,0.928c-0.002,0-0.002,0.003-0.002,0.003c-0.104,0.039-0.208,0.079-0.312,0.12
			c-0.788,0.309-1.573,0.623-2.358,0.937c-0.098,0.04-0.198,0.079-0.297,0.121c-1.564,0.628-3.123,1.267-4.673,1.915
			c-0.062,0.024-0.121,0.05-0.18,0.072c-1.595,0.667-3.182,1.343-4.755,2.024c-0.014,0.005-0.027,0.011-0.042,0.02
			c-1.676,0.726-3.336,1.458-4.973,2.198c-0.104,0.047-0.208,0.095-0.314,0.143c-0.695,0.314-1.391,0.628-2.074,0.944
			c-0.193,0.09-0.384,0.18-0.578,0.267c-0.594,0.277-1.188,0.553-1.777,0.83c-0.227,0.106-0.451,0.213-0.678,0.319
			c-0.55,0.258-1.097,0.519-1.638,0.776c-0.241,0.115-0.477,0.23-0.718,0.348c-0.519,0.25-1.037,0.502-1.547,0.752
			c-0.247,0.12-0.488,0.24-0.729,0.358c-0.502,0.247-0.998,0.493-1.491,0.74c-0.241,0.12-0.479,0.244-0.718,0.364
			c-0.487,0.244-0.97,0.49-1.446,0.734c-0.232,0.121-0.466,0.238-0.698,0.359c-0.474,0.246-0.941,0.49-1.404,0.734
			c-0.225,0.117-0.446,0.235-0.667,0.354c-0.466,0.246-0.923,0.49-1.377,0.734c-0.21,0.114-0.418,0.227-0.625,0.342
			c-0.457,0.246-0.908,0.496-1.352,0.743c-0.193,0.106-0.387,0.216-0.577,0.322c-0.451,0.252-0.892,0.505-1.332,0.754
			c-0.171,0.101-0.345,0.199-0.516,0.297c-0.448,0.261-0.889,0.519-1.32,0.776c-0.148,0.087-0.297,0.174-0.443,0.261
			c-0.454,0.272-0.894,0.542-1.328,0.808c-0.115,0.073-0.236,0.144-0.348,0.216c-0.469,0.292-0.923,0.578-1.368,0.863
			c-0.07,0.048-0.146,0.093-0.216,0.141c-0.514,0.331-1.01,0.659-1.489,0.983c-0.177,0.356-0.306,0.595-0.378,0.707
			c0,0.006-0.003,0.009-0.006,0.011c0,0,0,0.003-0.003,0.003c-0.017,0.028-0.03,0.045-0.039,0.051
			c-0.003,0.003-0.006,0.003-0.006,0.003c-0.003-0.003-0.005-0.006-0.003-0.017c0-0.003,0.003-0.009,0.006-0.015
			c0.003-0.011,0.009-0.027,0.014-0.045c0.009-0.017,0.012-0.03,0.021-0.053c0.017-0.039,0.042-0.096,0.067-0.151
			c0.011-0.025,0.02-0.042,0.03-0.07c0.045-0.093,0.099-0.205,0.163-0.334c0.045-0.03,0.09-0.062,0.134-0.09
			c0.135-0.274,0.295-0.616,0.474-1.022c0.034-0.079,0.07-0.157,0.107-0.241c0.047-0.109,0.095-0.225,0.146-0.342
			c0.042-0.099,0.081-0.199,0.123-0.301c0.141-0.336,0.283-0.697,0.435-1.093c0.079-0.205,0.157-0.415,0.238-0.634
			c0.028-0.078,0.059-0.16,0.087-0.241c0.076-0.21,0.151-0.423,0.228-0.645c0.027-0.075,0.053-0.151,0.078-0.228
			c0.207-0.605,0.415-1.253,0.622-1.939c0.018-0.062,0.037-0.126,0.054-0.188c0.045-0.154,0.09-0.314,0.138-0.475
			c0.059-0.213,0.12-0.426,0.182-0.647c0.025-0.093,0.051-0.193,0.076-0.288c0.095-0.356,0.188-0.718,0.277-1.088
			c0.078-0.317,0.154-0.634,0.229-0.959c0.064-0.289,0.124-0.586,0.186-0.883c0.025-0.112,0.051-0.222,0.072-0.334
			c0.018-0.09,0.037-0.182,0.054-0.271c0.028-0.148,0.056-0.301,0.084-0.449c0.051-0.28,0.104-0.558,0.154-0.844
			c0.165-0.97,0.306-1.974,0.421-3.005c0.033-0.322,0.066-0.65,0.095-0.976c0.028-0.317,0.054-0.637,0.076-0.956
			c0.02-0.286,0.042-0.569,0.056-0.855c0.003-0.027,0.003-0.05,0.006-0.075c0.025-0.485,0.039-0.973,0.051-1.467
			c0-0.109,0-0.219,0.002-0.327c0.003-0.379,0.003-0.76-0.002-1.145c-0.003-0.146-0.003-0.291-0.009-0.437
			c-0.009-0.385-0.022-0.774-0.042-1.164c-0.017-0.291-0.037-0.586-0.059-0.88c-0.022-0.322-0.043-0.647-0.073-0.973
			c-0.009-0.093-0.022-0.186-0.031-0.28c-0.042-0.41-0.089-0.824-0.146-1.236c-0.022-0.163-0.045-0.323-0.067-0.485
			c-0.053-0.367-0.114-0.737-0.18-1.107c-0.114-0.667-0.243-1.335-0.397-2.007c-1.632-7.109-4.461-15.744-11.472-22.759
			c-7.802-7.802-17.409-13.227-34.448-12.402c-15.089,0.734-23.959,8.323-29.56,14.656c-11.704,13.235-11.758,31.999-0.701,44.796
			c11.394,13.185,33.579,16.558,46.691-3.501c0.246-0.382,0.429-1.284,0.429-1.284l-10.403-11.021c0,0-0.367,0.731-0.544,1.104
			c-2.164,4.62-8.359,9.862-14.864,9.168c-7.628-0.813-13.997-9.938-12.349-20.348c1.214-7.685,10.375-18.651,26.122-17.724
			c17.625,1.037,22.506,12.792,24.472,18.251c4.508,12.52,2.458,32.455-15.955,43.498c-14.059,8.43-33.576,5.413-52.037,10.008
			c-22.604,5.627-39.146,19.691-39.146,19.691s11.376,14.228,11.704,13.955c30.069-25.054,52.452-14.188,90.164-27.445
			c29.341-10.316,56.578-32.413,88.42-40.883c53.714-14.291,97.242,1.175,88.021,29.798c-4.86,15.091-24.763,13.445-46.188,2.378
			c-20.986-10.839-33.757-12.363-46.139-6.919c-13.766,6.052-18.338,16.975-18.363,29.341c-0.003,0.771,0.034,2.915,0.034,2.915
			l16.694,0.337c0,0-0.09-1.389-0.039-2.465c0.21-4.608,0.995-9.936,7.527-13.255c6.849-3.479,16.543-5.065,37.442,6.351
			c23.63,12.903,49.632,13.804,61.714-3.712c10.76-15.599,6.827-34.28-1.303-45.149c-7.842-10.477-23.216-17.02-34.443-17.793
			c-3.815-0.264,17.992-4.467,40.925-23.367c22.57-18.604,41.544-48.757,43.907-87.343
			C711.864,420.969,696.717,386.901,671.66,359.126z M619.32,512.942c-36.874,2.212-58.067-12.927-69.554-28.665
			c-10.86-14.885-15.149-35.152-10.751-55.435c2.15-9.915,8.531-24.004,20.334-35.542c-1.557,3.033-3.067,6.512-4.545,10.565
			c-7.872,21.579-3.776,48.254,12.044,63.869c17.796,17.563,54.588,23.392,74.218,1.837c20.737-22.771,14.925-48.114-5.31-59.215
			c-20.821-11.42-37.3,6.228-42.119,17.348c-0.229,0.533-1.001,2.903-1.001,2.903l12.618,7.571c0,0,7.668-19.851,22.879-12.67
			c11.864,5.601,10.956,22.622,0.608,33.004c-11.085,11.123-35.272,11.483-51.117-4.013c-17.261-16.882-13.353-51.078,12.203-68.849
			c27.12-18.862,62.452-6.182,78.88,12.077c0.084,0.094,0.148,0.16,0.225,0.241c9.828,11.833,15.2,27.052,14.895,43.801
			C683.014,486.29,656.21,510.73,619.32,512.942z M223.504,745.447l0.401-11.096c-10.398,0.571-20.193,0.857-29.383,0.857
			c-0.269-5.951-0.401-12.338-0.401-19.164c7.143,0,14.639,0.168,22.489,0.505v-10.541c-7.984,0.37-15.48,0.555-22.489,0.555
			c0-6.355-0.168-11.866-0.504-16.54c8.183,0,17.308,0.27,27.37,0.805l0.555-11.043H178.31c0.435,8.641,0.653,19.08,0.653,31.317
			c0,12.744-0.219,24.19-0.653,34.345H223.504z M374.797,818.706l-8.644,0.174l-0.021,59.461c4.538,1.606,7.793,5.921,7.793,11.007
			c0,6.453-5.234,11.684-11.688,11.684c-6.456,0-11.69-5.23-11.69-11.684c0-5.095,3.266-9.414,7.811-11.016v-59.477l-8.64-0.154
			c0,0-9.736,34.481-13.961,51.493c-6.078,24.46-3.316,42.247,7.653,51.308c9.666,7.981,27.97,8.152,37.636,0.152
			c10.973-9.081,13.742-26.908,7.679-51.401C384.508,853.217,374.797,818.706,374.797,818.706z M159.575,717.029
			c-1.559-17.869-2.341-30.286-2.341-37.244h-21.696c0,3.731-14.037,45.942-14.037,49.573h-0.757
			c0-3.597-12.327-45.808-12.327-49.573H86.571c0,4.371-1.216,16.156-3.647,35.352c-2.434,19.197-3.647,29.301-3.647,30.311h15.66
			c0-4.371,3.964-47.729,4-51.931h0.754c0.704,4.202,13.622,49.78,13.622,51.931h13.496c0-2.086,15.626-48.325,15.962-50.344h0.754
			c0.034,3.364,3.748,44.628,3.748,50.344h14.643C161.916,744.371,161.134,734.898,159.575,717.029z M334.315,771.836
			c0,0-10.743,10.532-25.974,22.074c-10.345,7.836-21.556,15.004-37.437,12.402c-0.076-0.025-0.146-0.045-0.227-0.067
			c-3.21-0.939-10.039-3.796-12.986-7.791c-3.235-4.387-3.872-12.444,1.949-14.934c6.728-2.876,11.589,1.615,14.418,5.262
			c0.659,0.85,1.917,1.666,1.917,1.666l9.131-9.227c0,0-0.835-1.245-1.281-1.873c-7.143-10.101-22.823-16.963-35.671-6.035
			c-6.305,5.365-8.447,12.284-7.9,18.665c-29.865-20.409-59.769-14.844-72.483,3.378c-11.387,16.319-12.091,41.979,6.782,56.083
			c21.92,16.383,52.292,3.591,56.113-22.237c0.062-0.415-0.123-1.239-0.123-1.239l-14.855-4.857c0,0-1.071,10.613-9.619,14.953
			c-6.594,3.345-16.086,4.322-23.703-4.87c-6.412-7.74-7.166-21.86,2.599-30.84c11.491-10.569,30.778-5.936,44.804,2.599
			c15.542,9.453,45.718,27.911,74.675,12.01c20.14-11.06,43.506-34.409,43.506-34.409L334.315,771.836z"/>
	</g>
</g>
</svg>
