<?xml version="1.0" encoding="utf-8"?>
<!-- Generator: Adobe Illustrator 16.0.0, SVG Export Plug-In . SVG Version: 6.00 Build 0)  -->
<!DOCTYPE svg PUBLIC "-//W3C//DTD SVG 1.1//EN" "http://www.w3.org/Graphics/SVG/1.1/DTD/svg11.dtd">
<svg version="1.1" id="Layer_1" xmlns="http://www.w3.org/2000/svg" xmlns:xlink="http://www.w3.org/1999/xlink" x="0px" y="0px"
	 width="27.742px" height="30px" viewBox="362.401 137.798 27.742 30" enable-background="new 362.401 137.798 27.742 30"
	 xml:space="preserve">
<path fill="#FFFFFF" d="M374.769,154.726l-1.974,1.958c0,0-1.253-1.125-1.607-1.549c-0.354-0.424-0.872-0.525-0.769-1.696
	c0.103-1.17,0.333-2.972,0.436-4.134c0.101-1.162-0.084-1.457-0.437-1.877c-0.353-0.421-1.012-1.117-1.012-1.117l1.965-1.942
	c0,0,1.247,1.113,1.6,1.534c0.353,0.421,0.868,0.521,0.766,1.683c-0.102,1.162-0.32,2.949-0.422,4.12
	c-0.103,1.17,0.083,1.468,0.438,1.893C374.105,154.022,374.769,154.726,374.769,154.726z M379.244,154.781l-1.974,1.958
	c0,0-1.253-1.125-1.608-1.549c-0.354-0.424-0.871-0.525-0.769-1.695c0.103-1.171,0.333-2.972,0.435-4.134
	c0.102-1.162-0.083-1.457-0.436-1.878s-1.012-1.116-1.012-1.116l1.965-1.943c0,0,1.247,1.113,1.599,1.534
	c0.353,0.421,0.868,0.521,0.766,1.683c-0.101,1.162-0.32,2.95-0.421,4.121c-0.103,1.17,0.083,1.468,0.437,1.893
	C378.58,154.077,379.244,154.781,379.244,154.781z M385.688,156.774c-2.649,0.798-4.635-0.43-6.217-2.314
	c-0.354-0.42,0.027-1.559,0.128-2.721s0.102-1.162,0.203-2.324c0.102-1.161-0.083-1.456-0.436-1.877
	c-0.353-0.421-1.011-1.117-1.011-1.117l1.964-1.942c0,0,1.136,1.113,1.489,1.534c0.353,0.421,0.866,0.521,0.766,1.683
	c-0.102,1.162-0.379,4.33-0.48,5.492c-0.05,0.562,0.694,1.424,1.939,1.45c1.396,0.03,2.811-0.733,3.303-3.901
	c0.473-3.044-0.37-5.338-2.221-7.251c-1.894-1.959-4.49-2.84-7.192-3.077c-7.153-0.626-11.114,3.557-12.163,7.881
	c-1.127,4.651,0.256,8.088,3.227,10.009c2.693,1.742,7.53,1.256,10.677,0.487c0.087-0.021,0.264-0.027,0.264-0.027l0.513,2.542
	c0,0-0.141,0.02-0.21,0.04c-3.948,1.136-9.971,1.283-13.356-1.375c-3.418-2.682-5.023-6.338-3.896-11.853
	c1.114-5.454,7.148-10.914,15.105-10.264c2.696,0.22,6.6,1.425,8.891,3.831c2.549,2.677,3.405,6.333,3.115,9.048
	C389.773,153.674,388.204,156.016,385.688,156.774z M389.919,167.797h-27.518v-2.751h27.518V167.797z"/>
</svg>
