<?xml version="1.0" encoding="utf-8"?>
<!-- Generator: Adobe Illustrator 16.0.0, SVG Export Plug-In . SVG Version: 6.00 Build 0)  -->
<!DOCTYPE svg PUBLIC "-//W3C//DTD SVG 1.1//EN" "http://www.w3.org/Graphics/SVG/1.1/DTD/svg11.dtd">
<svg version="1.1" id="Layer_1" xmlns="http://www.w3.org/2000/svg" xmlns:xlink="http://www.w3.org/1999/xlink" x="0px" y="0px"
	 width="34.022px" height="30px" viewBox="0 0 34.022 30" style="enable-background:new 0 0 34.022 30;" xml:space="preserve">
<path d="M0.019,37.075v-3.4h34.003v3.4H0.019z M15.009,20.866l-2.434,2.414c0,0-1.546-1.386-1.982-1.909s-1.074-0.647-0.948-2.09
	c0.125-1.443,0.411-3.664,0.537-5.096c0.125-1.432-0.104-1.795-0.538-2.314c-0.435-0.52-1.248-1.377-1.248-1.377l2.421-2.395
	c0,0,1.539,1.373,1.973,1.891c0.436,0.519,1.07,0.643,0.945,2.075c-0.125,1.431-0.396,3.636-0.521,5.079
	c-0.126,1.442,0.102,1.81,0.539,2.333C14.191,19.999,15.009,20.866,15.009,20.866z M20.527,20.934l-2.436,2.414
	c0,0-1.545-1.386-1.981-1.909c-0.437-0.522-1.074-0.647-0.948-2.09c0.126-1.443,0.412-3.664,0.537-5.096
	c0.125-1.432-0.104-1.795-0.538-2.314c-0.435-0.52-1.248-1.377-1.248-1.377l2.422-2.394c0,0,1.538,1.372,1.972,1.891
	c0.436,0.52,1.071,0.643,0.945,2.074c-0.126,1.432-0.396,3.636-0.521,5.079c-0.125,1.443,0.104,1.81,0.54,2.333
	C19.706,20.067,20.527,20.934,20.527,20.934z M28.474,23.392c-3.266,0.984-5.716-0.53-7.666-2.853
	c-0.438-0.518,0.032-1.922,0.158-3.354c0.125-1.432,0.125-1.432,0.25-2.864c0.127-1.431-0.102-1.795-0.536-2.314
	c-0.437-0.519-1.25-1.377-1.25-1.377l2.423-2.395c0,0,1.401,1.373,1.837,1.892c0.435,0.519,1.069,0.643,0.943,2.074
	c-0.125,1.432-0.467,5.338-0.594,6.77c-0.061,0.692,0.858,1.755,2.393,1.788c1.723,0.037,3.467-0.904,4.073-4.809
	c0.583-3.752-0.457-6.58-2.738-8.939c-2.334-2.416-5.536-3.5-8.869-3.792C10.079,2.447,5.195,7.603,3.902,12.933
	c-1.39,5.733,0.316,9.97,3.979,12.338c3.32,2.147,9.284,1.548,13.165,0.6c0.106-0.026,0.325-0.034,0.325-0.034l0.632,3.134
	c0,0-0.175,0.025-0.259,0.05c-4.868,1.4-12.294,1.582-16.469-1.694c-4.214-3.306-6.193-7.812-4.804-14.611
	C1.845,5.994,9.285-0.736,19.096,0.065c3.324,0.271,8.139,1.756,10.964,4.723c3.143,3.3,4.197,7.806,3.84,11.153
	C33.51,19.57,31.575,22.457,28.474,23.392z"/>
</svg>
